<?xml version="1.0" encoding="UTF-8"?>
<svg id="Layer_1" xmlns="http://www.w3.org/2000/svg" version="1.1" viewBox="0 0 1440 1440">
  <!-- Generator: Adobe Illustrator 29.3.1, SVG Export Plug-In . SVG Version: 2.1.0 Build 151)  -->
  <defs>
    <style>
      .st0 {
        fill: #23d2d7;
      }
    </style>
  </defs>
  <g>
    <polygon class="st0" points="21 617.6 18.1 1015.4 15.2 617.6 21 617.6 21 617.6"/>
    <polygon class="st0" points="41.4 624.9 38.5 1019.8 35.5 624.9 41.4 624.9 41.4 624.9"/>
    <polygon class="st0" points="61.7 632.2 58.8 1024.2 55.9 632.2 61.7 632.2 61.7 632.2"/>
    <polygon class="st0" points="82.1 639.5 79.1 1028.6 76.2 639.5 82.1 639.5 82.1 639.5"/>
    <polygon class="st0" points="102.4 646.8 99.5 1033 96.6 646.8 102.4 646.8 102.4 646.8"/>
    <polygon class="st0" points="122.8 654.1 119.8 1037.4 116.9 654.1 122.8 654.1 122.8 654.1"/>
    <polygon class="st0" points="143.1 661.4 140.2 1041.8 137.2 661.4 143.1 661.4 143.1 661.4"/>
    <polygon class="st0" points="163.5 668.7 160.5 1046.2 157.6 668.7 163.5 668.7 163.5 668.7"/>
    <polygon class="st0" points="183.8 676 180.9 1050.6 177.9 676 183.8 676 183.8 676"/>
    <polygon class="st0" points="204.1 683.3 201.2 1055 198.3 683.3 204.1 683.3 204.1 683.3"/>
    <polygon class="st0" points="224.5 690.6 221.6 1059.4 218.6 690.6 224.5 690.6 224.5 690.6"/>
    <polygon class="st0" points="244.8 697.9 241.9 1063.8 239 697.9 244.8 697.9 244.8 697.9"/>
    <polygon class="st0" points="265.2 705.2 262.2 1068.2 259.3 705.2 265.2 705.2 265.2 705.2"/>
    <polygon class="st0" points="285.5 712.5 282.6 1072.6 279.7 712.5 285.5 712.5 285.5 712.5"/>
    <polygon class="st0" points="305.9 719.8 302.9 1077 300 719.8 305.9 719.8 305.9 719.8"/>
    <polygon class="st0" points="326.2 727.1 323.3 1081.4 320.3 727.1 326.2 727.1 326.2 727.1"/>
    <polygon class="st0" points="346.6 734.5 343.6 1085.8 340.7 734.5 346.6 734.5 346.6 734.5"/>
    <polygon class="st0" points="366.9 741.8 364 1090.2 361 741.8 366.9 741.8 366.9 741.8"/>
    <polygon class="st0" points="387.2 749.1 384.3 1094.6 381.4 749.1 387.2 749.1 387.2 749.1"/>
    <polygon class="st0" points="407.6 756.4 404.7 1099 401.7 756.4 407.6 756.4 407.6 756.4"/>
    <polygon class="st0" points="427.9 763.7 425 1103.4 422.1 763.7 427.9 763.7 427.9 763.7"/>
    <polygon class="st0" points="448.3 771 445.3 1107.8 442.4 771 448.3 771 448.3 771"/>
    <polygon class="st0" points="468.6 778.3 465.7 1112.2 462.8 778.3 468.6 778.3 468.6 778.3"/>
    <polygon class="st0" points="489 785.6 486 1116.6 483.1 785.6 489 785.6 489 785.6"/>
    <polygon class="st0" points="509.3 792.9 506.4 1121 503.4 792.9 509.3 792.9 509.3 792.9"/>
    <polygon class="st0" points="529.7 800.2 526.7 1125.4 523.8 800.2 529.7 800.2 529.7 800.2"/>
    <polygon class="st0" points="550 807.5 547.1 1129.8 544.1 807.5 550 807.5 550 807.5"/>
    <polygon class="st0" points="570.4 814.8 567.4 1134.2 564.5 814.8 570.4 814.8 570.4 814.8"/>
    <polygon class="st0" points="590.7 822.1 587.8 1138.6 584.8 822.1 590.7 822.1 590.7 822.1"/>
    <polygon class="st0" points="611 829.4 608.1 1143 605.2 829.4 611 829.4 611 829.4"/>
    <polygon class="st0" points="631.4 836.7 628.4 1147.4 625.5 836.7 631.4 836.7 631.4 836.7"/>
    <polygon class="st0" points="651.7 844 648.8 1151.8 645.9 844 651.7 844 651.7 844"/>
    <polygon class="st0" points="672.1 851.3 669.1 1156.2 666.2 851.3 672.1 851.3 672.1 851.3"/>
    <polygon class="st0" points="692.4 858.6 689.5 1160.6 686.5 858.6 692.4 858.6 692.4 858.6"/>
    <polygon class="st0" points="712.8 865.9 709.8 1165.1 706.9 865.9 712.8 865.9 712.8 865.9"/>
    <polygon class="st0" points="733.1 873.2 730.2 1169.5 727.2 873.2 733.1 873.2 733.1 873.2"/>
    <polygon class="st0" points="753.5 880.5 750.5 1173.9 747.6 880.5 753.5 880.5 753.5 880.5"/>
    <polygon class="st0" points="773.8 887.8 770.9 1178.3 767.9 887.8 773.8 887.8 773.8 887.8"/>
    <polygon class="st0" points="794.1 895.1 791.2 1182.7 788.3 895.1 794.1 895.1 794.1 895.1"/>
    <polygon class="st0" points="814.5 902.4 811.6 1187.1 808.6 902.4 814.5 902.4 814.5 902.4"/>
    <polygon class="st0" points="834.8 909.7 831.9 1191.5 829 909.7 834.8 909.7 834.8 909.7"/>
    <polygon class="st0" points="855.2 917 852.2 1195.9 849.3 917 855.2 917 855.2 917"/>
    <polygon class="st0" points="875.5 924.3 872.6 1200.3 869.6 924.3 875.5 924.3 875.5 924.3"/>
    <polygon class="st0" points="895.9 931.6 892.9 1204.7 890 931.6 895.9 931.6 895.9 931.6"/>
    <polygon class="st0" points="916.2 938.9 913.3 1209.1 910.3 938.9 916.2 938.9 916.2 938.9"/>
    <polygon class="st0" points="936.6 946.2 933.6 1213.5 930.7 946.2 936.6 946.2 936.6 946.2"/>
    <polygon class="st0" points="956.9 953.5 954 1217.9 951 953.5 956.9 953.5 956.9 953.5"/>
    <polygon class="st0" points="977.2 960.8 974.3 1222.3 971.4 960.8 977.2 960.8 977.2 960.8"/>
    <polygon class="st0" points="997.6 968.1 994.7 1226.7 991.7 968.1 997.6 968.1 997.6 968.1"/>
    <polygon class="st0" points="1017.9 975.4 1015 1231.1 1012.1 975.4 1017.9 975.4 1017.9 975.4"/>
    <polygon class="st0" points="1038.3 982.7 1035.3 1235.5 1032.4 982.7 1038.3 982.7 1038.3 982.7"/>
    <polygon class="st0" points="1058.6 990 1055.7 1239.9 1052.8 990 1058.6 990 1058.6 990"/>
    <polygon class="st0" points="1079 997.3 1076 1244.3 1073.1 997.3 1079 997.3 1079 997.3"/>
    <polygon class="st0" points="1099.3 1004.6 1096.4 1248.7 1093.4 1004.6 1099.3 1004.6 1099.3 1004.6"/>
    <polygon class="st0" points="1119.7 1011.9 1116.7 1253.1 1113.8 1011.9 1119.7 1011.9 1119.7 1011.9"/>
    <polygon class="st0" points="1140 1019.2 1137.1 1257.5 1134.1 1019.2 1140 1019.2 1140 1019.2"/>
    <polygon class="st0" points="1160.3 1026.5 1157.4 1261.9 1154.5 1026.5 1160.3 1026.5 1160.3 1026.5"/>
    <polygon class="st0" points="1180.7 1033.8 1177.8 1266.3 1174.8 1033.8 1180.7 1033.8 1180.7 1033.8"/>
    <polygon class="st0" points="1201 1041.2 1198.1 1270.7 1195.2 1041.2 1201 1041.2 1201 1041.2"/>
    <polygon class="st0" points="1221.4 1048.5 1218.4 1275.1 1215.5 1048.5 1221.4 1048.5 1221.4 1048.5"/>
    <polygon class="st0" points="1241.7 1055.8 1238.8 1279.5 1235.9 1055.8 1241.7 1055.8 1241.7 1055.8"/>
    <polygon class="st0" points="1262.1 1063.1 1259.1 1283.9 1256.2 1063.1 1262.1 1063.1 1262.1 1063.1"/>
    <polygon class="st0" points="1282.4 1070.4 1279.5 1288.3 1276.5 1070.4 1282.4 1070.4 1282.4 1070.4"/>
    <polygon class="st0" points="1302.8 1077.7 1299.8 1292.7 1296.9 1077.7 1302.8 1077.7 1302.8 1077.7"/>
    <polygon class="st0" points="1323.1 1085 1320.2 1297.1 1317.2 1085 1323.1 1085 1323.1 1085"/>
    <polygon class="st0" points="1343.4 1092.3 1340.5 1301.5 1337.6 1092.3 1343.4 1092.3 1343.4 1092.3"/>
    <polygon class="st0" points="1363.8 1099.6 1360.9 1305.9 1357.9 1099.6 1363.8 1099.6 1363.8 1099.6"/>
    <polygon class="st0" points="1384.1 1106.9 1381.2 1310.3 1378.3 1106.9 1384.1 1106.9 1384.1 1106.9"/>
    <polygon class="st0" points="1404.5 1114.2 1401.5 1314.7 1398.6 1114.2 1404.5 1114.2 1404.5 1114.2"/>
    <polygon class="st0" points="1424.8 1121.5 1421.9 1319.1 1419 1121.5 1424.8 1121.5 1424.8 1121.5"/>
  </g>
  <g>
    <polygon class="st0" points="21 120.9 18.1 593.7 15.2 120.9 21 120.9 21 120.9"/>
    <polygon class="st0" points="41.4 127.8 38.5 594.7 35.5 127.8 41.4 127.8 41.4 127.8"/>
    <polygon class="st0" points="61.7 134.7 58.8 595.6 55.9 134.7 61.7 134.7 61.7 134.7"/>
    <polygon class="st0" points="82.1 141.6 79.1 596.5 76.2 141.6 82.1 141.6 82.1 141.6"/>
    <polygon class="st0" points="102.4 148.5 99.5 597.5 96.6 148.5 102.4 148.5 102.4 148.5"/>
    <polygon class="st0" points="122.8 155.4 119.8 598.4 116.9 155.4 122.8 155.4 122.8 155.4"/>
    <polygon class="st0" points="143.1 162.3 140.2 599.4 137.2 162.3 143.1 162.3 143.1 162.3"/>
    <polygon class="st0" points="163.5 169.3 160.5 600.3 157.6 169.3 163.5 169.3 163.5 169.3"/>
    <polygon class="st0" points="183.8 176.2 180.9 601.3 177.9 176.2 183.8 176.2 183.8 176.2"/>
    <polygon class="st0" points="204.1 183.1 201.2 602.2 198.3 183.1 204.1 183.1 204.1 183.1"/>
    <polygon class="st0" points="224.5 190 221.6 603.2 218.6 190 224.5 190 224.5 190"/>
    <polygon class="st0" points="244.8 196.9 241.9 604.1 239 196.9 244.8 196.9 244.8 196.9"/>
    <polygon class="st0" points="265.2 203.8 262.2 605.1 259.3 203.8 265.2 203.8 265.2 203.8"/>
    <polygon class="st0" points="285.5 210.7 282.6 606 279.7 210.7 285.5 210.7 285.5 210.7"/>
    <polygon class="st0" points="305.9 217.7 302.9 607 300 217.7 305.9 217.7 305.9 217.7"/>
    <polygon class="st0" points="326.2 224.6 323.3 607.9 320.3 224.6 326.2 224.6 326.2 224.6"/>
    <polygon class="st0" points="346.6 231.5 343.6 608.9 340.7 231.5 346.6 231.5 346.6 231.5"/>
    <polygon class="st0" points="366.9 238.4 364 609.8 361 238.4 366.9 238.4 366.9 238.4"/>
    <polygon class="st0" points="387.2 245.3 384.3 610.8 381.4 245.3 387.2 245.3 387.2 245.3"/>
    <polygon class="st0" points="407.6 252.2 404.7 611.7 401.7 252.2 407.6 252.2 407.6 252.2"/>
    <polygon class="st0" points="427.9 259.1 425 612.6 422.1 259.1 427.9 259.1 427.9 259.1"/>
    <polygon class="st0" points="448.3 266 445.3 613.6 442.4 266 448.3 266 448.3 266"/>
    <polygon class="st0" points="468.6 273 465.7 614.5 462.8 273 468.6 273 468.6 273"/>
    <polygon class="st0" points="489 279.9 486 615.5 483.1 279.9 489 279.9 489 279.9"/>
    <polygon class="st0" points="509.3 286.8 506.4 616.4 503.4 286.8 509.3 286.8 509.3 286.8"/>
    <polygon class="st0" points="529.7 293.7 526.7 617.4 523.8 293.7 529.7 293.7 529.7 293.7"/>
    <polygon class="st0" points="550 300.6 547.1 618.3 544.1 300.6 550 300.6 550 300.6"/>
    <polygon class="st0" points="570.4 307.5 567.4 619.3 564.5 307.5 570.4 307.5 570.4 307.5"/>
    <polygon class="st0" points="590.7 314.4 587.8 620.2 584.8 314.4 590.7 314.4 590.7 314.4"/>
    <polygon class="st0" points="611 321.4 608.1 621.2 605.2 321.4 611 321.4 611 321.4"/>
    <polygon class="st0" points="631.4 328.3 628.4 622.1 625.5 328.3 631.4 328.3 631.4 328.3"/>
    <polygon class="st0" points="651.7 335.2 648.8 623.1 645.9 335.2 651.7 335.2 651.7 335.2"/>
    <polygon class="st0" points="672.1 342.1 669.1 624 666.2 342.1 672.1 342.1 672.1 342.1"/>
    <polygon class="st0" points="692.4 349 689.5 625 686.5 349 692.4 349 692.4 349"/>
    <polygon class="st0" points="712.8 355.9 709.8 625.9 706.9 355.9 712.8 355.9 712.8 355.9"/>
    <polygon class="st0" points="733.1 362.8 730.2 626.9 727.2 362.8 733.1 362.8 733.1 362.8"/>
    <polygon class="st0" points="753.5 369.8 750.5 627.8 747.6 369.8 753.5 369.8 753.5 369.8"/>
    <polygon class="st0" points="773.8 376.7 770.9 628.7 767.9 376.7 773.8 376.7 773.8 376.7"/>
    <polygon class="st0" points="794.1 383.6 791.2 629.7 788.3 383.6 794.1 383.6 794.1 383.6"/>
    <polygon class="st0" points="814.5 390.5 811.6 630.6 808.6 390.5 814.5 390.5 814.5 390.5"/>
    <polygon class="st0" points="834.8 397.4 831.9 631.6 829 397.4 834.8 397.4 834.8 397.4"/>
    <polygon class="st0" points="855.2 404.3 852.2 632.5 849.3 404.3 855.2 404.3 855.2 404.3"/>
    <polygon class="st0" points="875.5 411.2 872.6 633.5 869.6 411.2 875.5 411.2 875.5 411.2"/>
    <polygon class="st0" points="895.9 418.1 892.9 634.4 890 418.1 895.9 418.1 895.9 418.1"/>
    <polygon class="st0" points="916.2 425.1 913.3 635.4 910.3 425.1 916.2 425.1 916.2 425.1"/>
    <polygon class="st0" points="936.6 432 933.6 636.3 930.7 432 936.6 432 936.6 432"/>
    <polygon class="st0" points="956.9 438.9 954 637.3 951 438.9 956.9 438.9 956.9 438.9"/>
    <polygon class="st0" points="977.2 445.8 974.3 638.2 971.4 445.8 977.2 445.8 977.2 445.8"/>
    <polygon class="st0" points="997.6 452.7 994.7 639.2 991.7 452.7 997.6 452.7 997.6 452.7"/>
    <polygon class="st0" points="1017.9 459.6 1015 640.1 1012.1 459.6 1017.9 459.6 1017.9 459.6"/>
    <polygon class="st0" points="1038.3 466.5 1035.3 641.1 1032.4 466.5 1038.3 466.5 1038.3 466.5"/>
    <polygon class="st0" points="1058.6 473.5 1055.7 642 1052.8 473.5 1058.6 473.5 1058.6 473.5"/>
    <polygon class="st0" points="1079 480.4 1076 642.9 1073.1 480.4 1079 480.4 1079 480.4"/>
    <polygon class="st0" points="1099.3 487.3 1096.4 643.9 1093.4 487.3 1099.3 487.3 1099.3 487.3"/>
    <polygon class="st0" points="1119.7 494.2 1116.7 644.8 1113.8 494.2 1119.7 494.2 1119.7 494.2"/>
    <polygon class="st0" points="1140 501.1 1137.1 645.8 1134.1 501.1 1140 501.1 1140 501.1"/>
    <polygon class="st0" points="1160.3 508 1157.4 646.7 1154.5 508 1160.3 508 1160.3 508"/>
    <polygon class="st0" points="1180.7 514.9 1177.8 647.7 1174.8 514.9 1180.7 514.9 1180.7 514.9"/>
    <polygon class="st0" points="1201 521.8 1198.1 648.6 1195.2 521.8 1201 521.8 1201 521.8"/>
    <polygon class="st0" points="1221.4 528.8 1218.4 649.6 1215.5 528.8 1221.4 528.8 1221.4 528.8"/>
    <polygon class="st0" points="1241.7 535.7 1238.8 650.5 1235.9 535.7 1241.7 535.7 1241.7 535.7"/>
    <polygon class="st0" points="1262.1 542.6 1259.1 651.5 1256.2 542.6 1262.1 542.6 1262.1 542.6"/>
    <polygon class="st0" points="1282.4 549.5 1279.5 652.4 1276.5 549.5 1282.4 549.5 1282.4 549.5"/>
    <polygon class="st0" points="1302.8 556.4 1299.8 653.4 1296.9 556.4 1302.8 556.4 1302.8 556.4"/>
    <polygon class="st0" points="1323.1 563.3 1320.2 654.3 1317.2 563.3 1323.1 563.3 1323.1 563.3"/>
    <polygon class="st0" points="1343.4 570.2 1340.5 655.3 1337.6 570.2 1343.4 570.2 1343.4 570.2"/>
    <polygon class="st0" points="1363.8 577.2 1360.9 656.2 1357.9 577.2 1363.8 577.2 1363.8 577.2"/>
    <polygon class="st0" points="1384.1 584.1 1381.2 657.2 1378.3 584.1 1384.1 584.1 1384.1 584.1"/>
    <polygon class="st0" points="1404.5 591 1401.5 658.1 1398.6 591 1404.5 591 1404.5 591"/>
    <polygon class="st0" points="1424.8 597.9 1421.9 659 1419 597.9 1424.8 597.9 1424.8 597.9"/>
  </g>
  <g>
    <polygon class="st0" points="1424.8 269.9 1421.9 1095.8 1419 269.9 1424.8 269.9 1424.8 269.9"/>
    <polygon class="st0" points="1404.5 277.4 1401.5 1092.9 1398.6 277.4 1404.5 277.4 1404.5 277.4"/>
    <polygon class="st0" points="1384.1 284.9 1381.2 1090 1378.3 284.9 1384.1 284.9 1384.1 284.9"/>
    <polygon class="st0" points="1363.8 292.4 1360.9 1087.1 1357.9 292.4 1363.8 292.4 1363.8 292.4"/>
    <polygon class="st0" points="1343.4 299.8 1340.5 1084.2 1337.6 299.8 1343.4 299.8 1343.4 299.8"/>
    <polygon class="st0" points="1323.1 307.3 1320.2 1081.3 1317.2 307.3 1323.1 307.3 1323.1 307.3"/>
    <polygon class="st0" points="1302.8 314.8 1299.8 1078.4 1296.9 314.8 1302.8 314.8 1302.8 314.8"/>
    <polygon class="st0" points="1282.4 322.3 1279.5 1075.5 1276.5 322.3 1282.4 322.3 1282.4 322.3"/>
    <polygon class="st0" points="1262.1 329.8 1259.1 1072.6 1256.2 329.8 1262.1 329.8 1262.1 329.8"/>
    <polygon class="st0" points="1241.7 337.3 1238.8 1069.7 1235.9 337.3 1241.7 337.3 1241.7 337.3"/>
    <polygon class="st0" points="1221.4 344.8 1218.4 1066.8 1215.5 344.8 1221.4 344.8 1221.4 344.8"/>
    <polygon class="st0" points="1201 352.3 1198.1 1063.9 1195.2 352.3 1201 352.3 1201 352.3"/>
    <polygon class="st0" points="1180.7 359.8 1177.8 1061 1174.8 359.8 1180.7 359.8 1180.7 359.8"/>
    <polygon class="st0" points="1160.3 367.3 1157.4 1058.1 1154.5 367.3 1160.3 367.3 1160.3 367.3"/>
    <polygon class="st0" points="1140 374.8 1137.1 1055.3 1134.1 374.8 1140 374.8 1140 374.8"/>
    <polygon class="st0" points="1119.7 382.3 1116.7 1052.4 1113.8 382.3 1119.7 382.3 1119.7 382.3"/>
    <polygon class="st0" points="1099.3 389.8 1096.4 1049.5 1093.4 389.8 1099.3 389.8 1099.3 389.8"/>
    <polygon class="st0" points="1079 397.3 1076 1046.6 1073.1 397.3 1079 397.3 1079 397.3"/>
    <polygon class="st0" points="1058.6 404.8 1055.7 1043.7 1052.8 404.8 1058.6 404.8 1058.6 404.8"/>
    <polygon class="st0" points="1038.3 412.3 1035.3 1040.8 1032.4 412.3 1038.3 412.3 1038.3 412.3"/>
    <polygon class="st0" points="1017.9 419.8 1015 1037.9 1012.1 419.8 1017.9 419.8 1017.9 419.8"/>
    <polygon class="st0" points="997.6 427.3 994.7 1035 991.7 427.3 997.6 427.3 997.6 427.3"/>
    <polygon class="st0" points="977.2 434.8 974.3 1032.1 971.4 434.8 977.2 434.8 977.2 434.8"/>
    <polygon class="st0" points="956.9 442.3 954 1029.2 951 442.3 956.9 442.3 956.9 442.3"/>
    <polygon class="st0" points="936.6 449.8 933.6 1026.3 930.7 449.8 936.6 449.8 936.6 449.8"/>
    <polygon class="st0" points="916.2 457.3 913.3 1023.4 910.3 457.3 916.2 457.3 916.2 457.3"/>
    <polygon class="st0" points="895.9 464.8 892.9 1020.5 890 464.8 895.9 464.8 895.9 464.8"/>
    <polygon class="st0" points="875.5 472.3 872.6 1017.6 869.6 472.3 875.5 472.3 875.5 472.3"/>
    <polygon class="st0" points="855.2 479.8 852.2 1014.7 849.3 479.8 855.2 479.8 855.2 479.8"/>
    <polygon class="st0" points="834.8 487.3 831.9 1011.8 829 487.3 834.8 487.3 834.8 487.3"/>
    <polygon class="st0" points="814.5 494.8 811.6 1008.9 808.6 494.8 814.5 494.8 814.5 494.8"/>
    <polygon class="st0" points="794.1 502.3 791.2 1006 788.3 502.3 794.1 502.3 794.1 502.3"/>
    <polygon class="st0" points="773.8 509.8 770.9 1003.1 767.9 509.8 773.8 509.8 773.8 509.8"/>
    <polygon class="st0" points="753.5 517.3 750.5 1000.2 747.6 517.3 753.5 517.3 753.5 517.3"/>
    <polygon class="st0" points="733.1 524.8 730.2 997.3 727.2 524.8 733.1 524.8 733.1 524.8"/>
    <polygon class="st0" points="712.8 532.3 709.8 994.4 706.9 532.3 712.8 532.3 712.8 532.3"/>
    <polygon class="st0" points="692.4 539.8 689.5 991.5 686.5 539.8 692.4 539.8 692.4 539.8"/>
    <polygon class="st0" points="672.1 547.3 669.1 988.6 666.2 547.3 672.1 547.3 672.1 547.3"/>
    <polygon class="st0" points="651.7 554.8 648.8 985.7 645.9 554.8 651.7 554.8 651.7 554.8"/>
    <polygon class="st0" points="631.4 562.2 628.4 982.8 625.5 562.2 631.4 562.2 631.4 562.2"/>
    <polygon class="st0" points="611 569.7 608.1 979.9 605.2 569.7 611 569.7 611 569.7"/>
    <polygon class="st0" points="590.7 577.2 587.8 977 584.8 577.2 590.7 577.2 590.7 577.2"/>
    <polygon class="st0" points="570.4 584.7 567.4 974.1 564.5 584.7 570.4 584.7 570.4 584.7"/>
    <polygon class="st0" points="550 592.2 547.1 971.2 544.1 592.2 550 592.2 550 592.2"/>
    <polygon class="st0" points="529.7 599.7 526.7 968.3 523.8 599.7 529.7 599.7 529.7 599.7"/>
    <polygon class="st0" points="509.3 607.2 506.4 965.4 503.4 607.2 509.3 607.2 509.3 607.2"/>
    <polygon class="st0" points="489 614.7 486 962.6 483.1 614.7 489 614.7 489 614.7"/>
    <polygon class="st0" points="468.6 622.2 465.7 959.7 462.8 622.2 468.6 622.2 468.6 622.2"/>
    <polygon class="st0" points="448.3 629.7 445.3 956.8 442.4 629.7 448.3 629.7 448.3 629.7"/>
    <polygon class="st0" points="427.9 637.2 425 953.9 422.1 637.2 427.9 637.2 427.9 637.2"/>
    <polygon class="st0" points="407.6 644.7 404.7 951 401.7 644.7 407.6 644.7 407.6 644.7"/>
    <polygon class="st0" points="387.2 652.2 384.3 948.1 381.4 652.2 387.2 652.2 387.2 652.2"/>
    <polygon class="st0" points="366.9 659.7 364 945.2 361 659.7 366.9 659.7 366.9 659.7"/>
    <polygon class="st0" points="346.6 667.2 343.6 942.3 340.7 667.2 346.6 667.2 346.6 667.2"/>
    <polygon class="st0" points="326.2 674.7 323.3 939.4 320.3 674.7 326.2 674.7 326.2 674.7"/>
    <polygon class="st0" points="305.9 682.2 302.9 936.5 300 682.2 305.9 682.2 305.9 682.2"/>
    <polygon class="st0" points="285.5 689.7 282.6 933.6 279.7 689.7 285.5 689.7 285.5 689.7"/>
    <polygon class="st0" points="265.2 697.2 262.2 930.7 259.3 697.2 265.2 697.2 265.2 697.2"/>
    <polygon class="st0" points="244.8 704.7 241.9 927.8 239 704.7 244.8 704.7 244.8 704.7"/>
    <polygon class="st0" points="224.5 712.2 221.6 924.9 218.6 712.2 224.5 712.2 224.5 712.2"/>
    <polygon class="st0" points="204.1 719.7 201.2 922 198.3 719.7 204.1 719.7 204.1 719.7"/>
    <polygon class="st0" points="183.8 727.2 180.9 919.1 177.9 727.2 183.8 727.2 183.8 727.2"/>
    <polygon class="st0" points="163.5 734.7 160.5 916.2 157.6 734.7 163.5 734.7 163.5 734.7"/>
    <polygon class="st0" points="143.1 742.2 140.2 913.3 137.2 742.2 143.1 742.2 143.1 742.2"/>
    <polygon class="st0" points="122.8 749.7 119.8 910.4 116.9 749.7 122.8 749.7 122.8 749.7"/>
    <polygon class="st0" points="102.4 757.2 99.5 907.5 96.6 757.2 102.4 757.2 102.4 757.2"/>
    <polygon class="st0" points="82.1 764.7 79.1 904.6 76.2 764.7 82.1 764.7 82.1 764.7"/>
    <polygon class="st0" points="61.7 772.2 58.8 901.7 55.9 772.2 61.7 772.2 61.7 772.2"/>
    <polygon class="st0" points="41.4 779.7 38.5 898.8 35.5 779.7 41.4 779.7 41.4 779.7"/>
    <polygon class="st0" points="21 787.2 18.1 895.9 15.2 787.2 21 787.2 21 787.2"/>
  </g>
</svg>